<mxfile host="app.diagrams.net" modified="2024-01-21T09:24:54.701Z" agent="Mozilla/5.0 (Windows NT 10.0; Win64; x64) AppleWebKit/537.36 (KHTML, like Gecko) Chrome/120.0.0.0 Safari/537.36 Edg/120.0.0.0" etag="6A9X7zO3ikWW2ceEkLM3" version="22.1.21" type="device">
  <diagram name="第 1 页" id="2F9-EmuL521SoThDyybP">
    <mxGraphModel dx="906" dy="665" grid="1" gridSize="10" guides="1" tooltips="1" connect="1" arrows="1" fold="1" page="1" pageScale="1" pageWidth="827" pageHeight="1169" math="0" shadow="0">
      <root>
        <mxCell id="0" />
        <mxCell id="1" parent="0" />
        <mxCell id="siFRVaRiH0VzxwOPeYYG-14" value="" style="edgeStyle=orthogonalEdgeStyle;rounded=0;orthogonalLoop=1;jettySize=auto;html=1;" edge="1" parent="1" source="siFRVaRiH0VzxwOPeYYG-1" target="siFRVaRiH0VzxwOPeYYG-13">
          <mxGeometry relative="1" as="geometry" />
        </mxCell>
        <mxCell id="siFRVaRiH0VzxwOPeYYG-1" value="&lt;font style=&quot;font-size: 20px;&quot;&gt;F&lt;/font&gt;" style="rounded=1;whiteSpace=wrap;html=1;fillColor=#dae8fc;strokeColor=#6c8ebf;" vertex="1" parent="1">
          <mxGeometry x="360" y="290" width="110" height="80" as="geometry" />
        </mxCell>
        <mxCell id="siFRVaRiH0VzxwOPeYYG-13" value="&lt;font color=&quot;#ff0000&quot;&gt;Yes&lt;/font&gt;/No" style="text;strokeColor=none;align=center;fillColor=none;html=1;verticalAlign=middle;whiteSpace=wrap;rounded=0;" vertex="1" parent="1">
          <mxGeometry x="510" y="315" width="60" height="30" as="geometry" />
        </mxCell>
        <mxCell id="siFRVaRiH0VzxwOPeYYG-15" value="&lt;font style=&quot;font-size: 14px;&quot;&gt;Spam Flitering&lt;/font&gt;" style="text;strokeColor=none;align=center;fillColor=none;html=1;verticalAlign=middle;whiteSpace=wrap;rounded=0;" vertex="1" parent="1">
          <mxGeometry x="150" y="315" width="60" height="30" as="geometry" />
        </mxCell>
        <mxCell id="siFRVaRiH0VzxwOPeYYG-17" value="" style="edgeStyle=orthogonalEdgeStyle;rounded=0;orthogonalLoop=1;jettySize=auto;html=1;" edge="1" parent="1" source="siFRVaRiH0VzxwOPeYYG-16" target="siFRVaRiH0VzxwOPeYYG-1">
          <mxGeometry relative="1" as="geometry" />
        </mxCell>
        <mxCell id="siFRVaRiH0VzxwOPeYYG-16" value="" style="outlineConnect=0;dashed=0;verticalLabelPosition=bottom;verticalAlign=top;align=center;html=1;shape=mxgraph.aws3.email;fillColor=#D9A741;gradientColor=none;" vertex="1" parent="1">
          <mxGeometry x="250" y="299.25" width="81" height="61.5" as="geometry" />
        </mxCell>
      </root>
    </mxGraphModel>
  </diagram>
</mxfile>
